<?xml version="1.0" encoding="UTF-8" standalone="no"?>
<!-- Created with Inkscape (http://www.inkscape.org/) -->

<svg
   xmlns:dc="http://purl.org/dc/elements/1.1/"
   xmlns:cc="http://creativecommons.org/ns#"
   xmlns:rdf="http://www.w3.org/1999/02/22-rdf-syntax-ns#"
   xmlns:svg="http://www.w3.org/2000/svg"
   xmlns="http://www.w3.org/2000/svg"
   xmlns:sodipodi="http://sodipodi.sourceforge.net/DTD/sodipodi-0.dtd"
   xmlns:inkscape="http://www.inkscape.org/namespaces/inkscape"
   id="svg2985"
   version="1.1"
   inkscape:version="0.48.5 r10040"
   width="1530"
   height="990"
   xml:space="preserve"
   sodipodi:docname="lasercut plate.pdf"><metadata
     id="metadata2991"><rdf:RDF><cc:Work
         rdf:about=""><dc:format>image/svg+xml</dc:format><dc:type
           rdf:resource="http://purl.org/dc/dcmitype/StillImage" /><dc:title></dc:title></cc:Work></rdf:RDF></metadata><defs
     id="defs2989"><clipPath
       clipPathUnits="userSpaceOnUse"
       id="clipPath2999"><path
         d="m 3526,2646 10590,0 0,8839 -10590,0 0,-8839"
         id="path3001" /></clipPath><clipPath
       clipPathUnits="userSpaceOnUse"
       id="clipPath3227"><path
         d="m 0,0 20399,0 0,13199 L 0,13199 0,0"
         id="path3229" /></clipPath><clipPath
       clipPathUnits="userSpaceOnUse"
       id="clipPath3287"><path
         d="m 0,0 20399,0 0,13199 L 0,13199 0,0"
         id="path3289" /></clipPath><clipPath
       clipPathUnits="userSpaceOnUse"
       id="clipPath3299"><path
         d="m 0,0 20399,0 0,13199 L 0,13199 0,0"
         id="path3301" /></clipPath></defs><sodipodi:namedview
     pagecolor="#ffffff"
     bordercolor="#666666"
     borderopacity="1"
     objecttolerance="10"
     gridtolerance="10"
     guidetolerance="10"
     inkscape:pageopacity="0"
     inkscape:pageshadow="2"
     inkscape:window-width="1536"
     inkscape:window-height="801"
     id="namedview2987"
     showgrid="false"
     inkscape:zoom="0.87709811"
     inkscape:cx="970.17813"
     inkscape:cy="667.00558"
     inkscape:window-x="-8"
     inkscape:window-y="-8"
     inkscape:window-maximized="1"
     inkscape:current-layer="g2993" /><g
     id="g2993"
     inkscape:groupmode="layer"
     inkscape:label="lasercut plate"
     transform="matrix(0.075,0,0,-0.075,0,990)"><g
       id="g2995"
       transform="matrix(1.8797974,0,0,1.8709066,-1258.1806,-10659.471)"><g
         id="g2997"
         clip-path="url(#clipPath2999)"><path
           d="m 4650,11194 0,-353 -352,0 0,353 352,0"
           style="fill:none;stroke:#000000;stroke-width:24;stroke-linecap:round;stroke-linejoin:round;stroke-miterlimit:10;stroke-opacity:1;stroke-dasharray:none"
           id="path3017"
           inkscape:connector-curvature="0" /><path
           d="m 9219,10361 0,353 353,0 0,-353 -353,0"
           style="fill:none;stroke:#000000;stroke-width:24;stroke-linecap:round;stroke-linejoin:round;stroke-miterlimit:10;stroke-opacity:1;stroke-dasharray:none"
           id="path3019"
           inkscape:connector-curvature="0" /><path
           d="m 3817,11194 353,0 0,-353 -353,0 0,353"
           style="fill:none;stroke:#000000;stroke-width:24;stroke-linecap:round;stroke-linejoin:round;stroke-miterlimit:10;stroke-opacity:1;stroke-dasharray:none"
           id="path3021"
           inkscape:connector-curvature="0" /><path
           d="m 9159,10841 0,353 353,0 0,-353 -353,0"
           style="fill:none;stroke:#000000;stroke-width:24;stroke-linecap:round;stroke-linejoin:round;stroke-miterlimit:10;stroke-opacity:1;stroke-dasharray:none"
           id="path3023"
           inkscape:connector-curvature="0" /><path
           d="m 8138,11194 353,0 0,-353 -353,0 0,353"
           style="fill:none;stroke:#000000;stroke-width:24;stroke-linecap:round;stroke-linejoin:round;stroke-miterlimit:10;stroke-opacity:1;stroke-dasharray:none"
           id="path3025"
           inkscape:connector-curvature="0" /><path
           d="m 7178,11194 353,0 0,-353 -353,0 0,353"
           style="fill:none;stroke:#000000;stroke-width:24;stroke-linecap:round;stroke-linejoin:round;stroke-miterlimit:10;stroke-opacity:1;stroke-dasharray:none"
           id="path3027"
           inkscape:connector-curvature="0" /><path
           d="m 8619,10841 0,353 352,0 0,-353 -352,0"
           style="fill:none;stroke:#000000;stroke-width:24;stroke-linecap:round;stroke-linejoin:round;stroke-miterlimit:10;stroke-opacity:1;stroke-dasharray:none"
           id="path3029"
           inkscape:connector-curvature="0" /><path
           d="m 7658,10841 0,353 353,0 0,-353 -353,0"
           style="fill:none;stroke:#000000;stroke-width:24;stroke-linecap:round;stroke-linejoin:round;stroke-miterlimit:10;stroke-opacity:1;stroke-dasharray:none"
           id="path3031"
           inkscape:connector-curvature="0" /><path
           d="m 9431,9482 15,0 0,-5 -20,0 0,50 20,0 0,-5 -15,0 0,-17 13,0 0,-5 -13,0 0,-18"
           style="fill:none;stroke:#000000;stroke-width:24;stroke-linecap:round;stroke-linejoin:round;stroke-miterlimit:10;stroke-opacity:1;stroke-dasharray:none"
           id="path3033"
           inkscape:connector-curvature="0" /><path
           d="m 6211,10361 -353,0 0,353 353,0 0,-353"
           style="fill:none;stroke:#000000;stroke-width:24;stroke-linecap:round;stroke-linejoin:round;stroke-miterlimit:10;stroke-opacity:1;stroke-dasharray:none"
           id="path3035"
           inkscape:connector-curvature="0" /><path
           d="m 7651,10714 0,-353 -353,0 0,353 353,0"
           style="fill:none;stroke:#000000;stroke-width:24;stroke-linecap:round;stroke-linejoin:round;stroke-miterlimit:10;stroke-opacity:1;stroke-dasharray:none"
           id="path3037"
           inkscape:connector-curvature="0" /><path
           d="m 8739,10361 0,353 352,0 0,-353 -352,0"
           style="fill:none;stroke:#000000;stroke-width:24;stroke-linecap:round;stroke-linejoin:round;stroke-miterlimit:10;stroke-opacity:1;stroke-dasharray:none"
           id="path3039"
           inkscape:connector-curvature="0" /><path
           d="m 5738,10841 0,353 353,0 0,-353 -353,0"
           style="fill:none;stroke:#000000;stroke-width:24;stroke-linecap:round;stroke-linejoin:round;stroke-miterlimit:10;stroke-opacity:1;stroke-dasharray:none"
           id="path3041"
           inkscape:connector-curvature="0" /><path
           d="m 7051,11194 0,-353 -353,0 0,353 353,0"
           style="fill:none;stroke:#000000;stroke-width:24;stroke-linecap:round;stroke-linejoin:round;stroke-miterlimit:10;stroke-opacity:1;stroke-dasharray:none"
           id="path3043"
           inkscape:connector-curvature="0" /><path
           d="m 4778,11194 352,0 0,-353 -352,0 0,353"
           style="fill:none;stroke:#000000;stroke-width:24;stroke-linecap:round;stroke-linejoin:round;stroke-miterlimit:10;stroke-opacity:1;stroke-dasharray:none"
           id="path3045"
           inkscape:connector-curvature="0" /><path
           d="m 6571,10841 -353,0 0,353 353,0 0,-353"
           style="fill:none;stroke:#000000;stroke-width:24;stroke-linecap:round;stroke-linejoin:round;stroke-miterlimit:10;stroke-opacity:1;stroke-dasharray:none"
           id="path3047"
           inkscape:connector-curvature="0" /><path
           d="m 5611,11194 0,-353 -353,0 0,353 353,0"
           style="fill:none;stroke:#000000;stroke-width:24;stroke-linecap:round;stroke-linejoin:round;stroke-miterlimit:10;stroke-opacity:1;stroke-dasharray:none"
           id="path3049"
           inkscape:connector-curvature="0" /><path
           d="m 6912,9360 0,-4 0,-4 -1,-4 -2,-3 -1,-3 -2,-3 -2,-3 -3,-3 -2,-2 -3,-3 -3,-2 -4,-1 -3,-1 -4,-1 -4,-1 -4,0 -3,0 -4,1 -4,1 -3,1 -4,1 -3,2 -3,3 -2,2 -3,3 -2,3 -2,3 -1,3 -2,3 -1,4 0,4 0,4 0,4 0,3 1,4 2,3 1,4 2,3 2,3 3,2 2,3 3,2 3,2 4,2 3,1 4,1 4,0 3,0 4,0 4,0 4,-1 3,-1 4,-2 3,-2 3,-2 2,-3 3,-2 2,-3 2,-3 1,-4 2,-3 1,-4 0,-3 0,-4"
           style="fill:none;stroke:#000000;stroke-width:24;stroke-linecap:round;stroke-linejoin:round;stroke-miterlimit:10;stroke-opacity:1;stroke-dasharray:none"
           id="path3051"
           inkscape:connector-curvature="0" /><path
           d="m 9534,9399 1,4 0,4 1,3 1,4 2,3 2,3 2,3 2,3 3,2 3,2 3,2 3,2 4,1 4,1 3,1 4,0 4,0 4,-1 3,-1 4,-1 3,-2 3,-2 3,-2 3,-2 2,-3 3,-3 1,-3 2,-3 1,-4 1,-3 1,-4 0,-4 0,-4 -1,-4 -1,-3 -1,-4 -2,-3 -1,-3 -3,-3 -2,-3 -3,-2 -3,-2 -3,-2 -3,-2 -4,-1 -3,-1 -4,-1 -4,0 -4,0 -3,1 -4,1 -4,1 -3,2 -3,2 -3,2 -3,2 -2,3 -2,3 -2,3 -2,3 -1,4 -1,3 0,4 -1,4"
           style="fill:none;stroke:#000000;stroke-width:24;stroke-linecap:round;stroke-linejoin:round;stroke-miterlimit:10;stroke-opacity:1;stroke-dasharray:none"
           id="path3053"
           inkscape:connector-curvature="0" /><path
           d="m 3854,9397 -1,-3 0,-4 -1,-4 -1,-3 -2,-4 -2,-3 -2,-3 -2,-2 -3,-3 -3,-2 -3,-2 -3,-1 -4,-2 -4,-1 -3,0 -4,0 -4,0 -4,0 -3,1 -4,2 -3,1 -3,2 -3,2 -3,3 -2,2 -3,3 -1,3 -2,4 -1,3 -1,4 -1,4 0,3 0,4 1,4 1,4 1,3 2,4 1,3 3,3 2,2 3,3 3,2 3,2 3,1 4,2 3,1 4,0 4,0 4,0 3,0 4,-1 4,-2 3,-1 3,-2 3,-2 3,-3 2,-2 2,-3 2,-3 2,-4 1,-3 1,-4 0,-4 1,-4"
           style="fill:none;stroke:#000000;stroke-width:24;stroke-linecap:round;stroke-linejoin:round;stroke-miterlimit:10;stroke-opacity:1;stroke-dasharray:none"
           id="path3055"
           inkscape:connector-curvature="0" /><path
           d="m 4770,10714 0,-353 -352,0 0,353 352,0"
           style="fill:none;stroke:#000000;stroke-width:24;stroke-linecap:round;stroke-linejoin:round;stroke-miterlimit:10;stroke-opacity:1;stroke-dasharray:none"
           id="path3057"
           inkscape:connector-curvature="0" /><path
           d="m 3816,10751 0,-3 -1,-4 -1,-4 -1,-3 -2,-4 -2,-3 -2,-3 -2,-2 -3,-3 -3,-2 -3,-2 -3,-1 -4,-2 -3,-1 -4,0 -4,0 -4,0 -4,0 -3,1 -4,2 -3,1 -3,2 -3,2 -3,3 -2,2 -2,3 -2,3 -2,4 -1,3 -1,4 -1,4 0,3 0,4 1,4 1,4 1,3 2,3 2,4 2,2 2,3 3,3 3,2 3,2 3,1 4,2 3,0 4,1 4,0 4,0 4,-1 3,0 4,-2 3,-1 3,-2 3,-2 3,-3 2,-3 2,-2 2,-4 2,-3 1,-3 1,-4 1,-4 0,-4"
           style="fill:none;stroke:#000000;stroke-width:24;stroke-linecap:round;stroke-linejoin:round;stroke-miterlimit:10;stroke-opacity:1;stroke-dasharray:none"
           id="path3059"
           inkscape:connector-curvature="0" /><path
           d="m 9572,10832 0,4 1,4 1,3 1,4 2,3 2,3 2,3 2,3 3,2 3,2 3,2 3,2 4,1 3,1 4,1 4,0 4,0 4,-1 3,-1 4,-1 3,-2 3,-2 3,-2 3,-2 2,-3 2,-3 2,-3 2,-3 1,-4 1,-3 1,-4 0,-4 0,-4 -1,-4 -1,-3 -1,-4 -2,-3 -2,-3 -2,-3 -2,-3 -3,-2 -3,-2 -3,-2 -3,-2 -4,-1 -3,-1 -4,-1 -4,0 -4,0 -4,1 -3,1 -4,1 -3,2 -3,2 -3,2 -3,2 -2,3 -2,3 -2,3 -2,3 -1,4 -1,3 -1,4 0,4"
           style="fill:none;stroke:#000000;stroke-width:24;stroke-linecap:round;stroke-linejoin:round;stroke-miterlimit:10;stroke-opacity:1;stroke-dasharray:none"
           id="path3061"
           inkscape:connector-curvature="0" /><path
           d="m 8516,11248 0,4 1,4 1,4 1,3 2,3 2,4 2,2 2,3 3,3 3,2 3,2 3,1 4,2 3,0 4,1 4,0 4,0 4,-1 3,0 4,-2 3,-1 3,-2 3,-2 3,-3 2,-3 2,-2 2,-4 2,-3 1,-3 1,-4 1,-4 0,-4 0,-3 -1,-4 -1,-4 -1,-3 -2,-4 -2,-3 -2,-3 -2,-2 -3,-3 -3,-2 -3,-2 -3,-1 -4,-2 -3,-1 -4,0 -4,0 -4,0 -4,0 -3,1 -4,2 -3,1 -3,2 -3,2 -3,3 -2,2 -2,3 -2,3 -2,4 -1,3 -1,4 -1,4 0,3"
           style="fill:none;stroke:#000000;stroke-width:24;stroke-linecap:round;stroke-linejoin:round;stroke-miterlimit:10;stroke-opacity:1;stroke-dasharray:none"
           id="path3063"
           inkscape:connector-curvature="0" /><path
           d="m 8851,10234 0,-353 -352,0 0,353 352,0"
           style="fill:none;stroke:#000000;stroke-width:24;stroke-linecap:round;stroke-linejoin:round;stroke-miterlimit:10;stroke-opacity:1;stroke-dasharray:none"
           id="path3065"
           inkscape:connector-curvature="0" /><path
           d="m 9039,10234 352,0 0,-353 -352,0 0,353"
           style="fill:none;stroke:#000000;stroke-width:24;stroke-linecap:round;stroke-linejoin:round;stroke-miterlimit:10;stroke-opacity:1;stroke-dasharray:none"
           id="path3067"
           inkscape:connector-curvature="0" /><path
           d="m 3877,10714 353,0 0,-353 -353,0 0,353"
           style="fill:none;stroke:#000000;stroke-width:24;stroke-linecap:round;stroke-linejoin:round;stroke-miterlimit:10;stroke-opacity:1;stroke-dasharray:none"
           id="path3069"
           inkscape:connector-curvature="0" /><path
           d="m 6736,9382 -83,0 0,24 -44,0 0,113 -38,0 0,-118 -353,0 0,118 -38,0 0,-113 -44,0 0,-24 -83,0 0,24 -44,0 0,158 -20,0 0,71 20,0 0,81 44,0 0,24 83,0 0,-24 44,0 0,-81 38,0 0,118 353,0 0,-118 38,0 0,81 44,0 0,24 83,0 0,-24 43,0 0,-81 21,0 0,-71 -21,0 0,-158 -43,0 0,-24"
           style="fill:none;stroke:#000000;stroke-width:24;stroke-linecap:round;stroke-linejoin:round;stroke-miterlimit:10;stroke-opacity:1;stroke-dasharray:none"
           id="path3071"
           inkscape:connector-curvature="0" /><path
           d="m 5371,9753 0,-352 -353,0 0,352 353,0"
           style="fill:none;stroke:#000000;stroke-width:24;stroke-linecap:round;stroke-linejoin:round;stroke-miterlimit:10;stroke-opacity:1;stroke-dasharray:none"
           id="path3073"
           inkscape:connector-curvature="0" /><path
           d="m 4057,9881 0,353 353,0 0,-353 -353,0"
           style="fill:none;stroke:#000000;stroke-width:24;stroke-linecap:round;stroke-linejoin:round;stroke-miterlimit:10;stroke-opacity:1;stroke-dasharray:none"
           id="path3075"
           inkscape:connector-curvature="0" /><path
           d="m 5010,9881 -352,0 0,353 352,0 0,-353"
           style="fill:none;stroke:#000000;stroke-width:24;stroke-linecap:round;stroke-linejoin:round;stroke-miterlimit:10;stroke-opacity:1;stroke-dasharray:none"
           id="path3077"
           inkscape:connector-curvature="0" /><path
           d="m 8018,10234 353,0 0,-353 -353,0 0,353"
           style="fill:none;stroke:#000000;stroke-width:24;stroke-linecap:round;stroke-linejoin:round;stroke-miterlimit:10;stroke-opacity:1;stroke-dasharray:none"
           id="path3079"
           inkscape:connector-curvature="0" /><path
           d="m 8251,9401 -353,0 0,352 353,0 0,-352"
           style="fill:none;stroke:#000000;stroke-width:24;stroke-linecap:round;stroke-linejoin:round;stroke-miterlimit:10;stroke-opacity:1;stroke-dasharray:none"
           id="path3081"
           inkscape:connector-curvature="0" /><path
           d="m 5851,9401 -353,0 0,352 353,0 0,-352"
           style="fill:none;stroke:#000000;stroke-width:24;stroke-linecap:round;stroke-linejoin:round;stroke-miterlimit:10;stroke-opacity:1;stroke-dasharray:none"
           id="path3083"
           inkscape:connector-curvature="0" /><path
           d="m 5491,9881 -353,0 0,353 353,0 0,-353"
           style="fill:none;stroke:#000000;stroke-width:24;stroke-linecap:round;stroke-linejoin:round;stroke-miterlimit:10;stroke-opacity:1;stroke-dasharray:none"
           id="path3085"
           inkscape:connector-curvature="0" /><path
           d="m 6098,10234 353,0 0,-353 -353,0 0,353"
           style="fill:none;stroke:#000000;stroke-width:24;stroke-linecap:round;stroke-linejoin:round;stroke-miterlimit:10;stroke-opacity:1;stroke-dasharray:none"
           id="path3087"
           inkscape:connector-curvature="0" /><path
           d="m 5971,9881 -353,0 0,353 353,0 0,-353"
           style="fill:none;stroke:#000000;stroke-width:24;stroke-linecap:round;stroke-linejoin:round;stroke-miterlimit:10;stroke-opacity:1;stroke-dasharray:none"
           id="path3089"
           inkscape:connector-curvature="0" /><path
           d="m 7411,10234 0,-353 -353,0 0,353 353,0"
           style="fill:none;stroke:#000000;stroke-width:24;stroke-linecap:round;stroke-linejoin:round;stroke-miterlimit:10;stroke-opacity:1;stroke-dasharray:none"
           id="path3091"
           inkscape:connector-curvature="0" /><path
           d="m 8439,9753 352,0 0,-352 -352,0 0,352"
           style="fill:none;stroke:#000000;stroke-width:24;stroke-linecap:round;stroke-linejoin:round;stroke-miterlimit:10;stroke-opacity:1;stroke-dasharray:none"
           id="path3093"
           inkscape:connector-curvature="0" /><path
           d="m 4478,9401 0,352 352,0 0,-352 -352,0"
           style="fill:none;stroke:#000000;stroke-width:24;stroke-linecap:round;stroke-linejoin:round;stroke-miterlimit:10;stroke-opacity:1;stroke-dasharray:none"
           id="path3095"
           inkscape:connector-curvature="0" /><path
           d="m 7740,9635 20,0 0,-71 -20,0 0,-158 -44,0 0,-24 -83,0 0,24 -44,0 0,113 -38,0 0,-118 -353,0 0,118 -38,0 0,-113 -44,0 0,-24 -83,0 0,24 -43,0 0,158 -21,0 0,71 21,0 0,81 43,0 0,24 83,0 0,-24 44,0 0,-81 38,0 0,118 353,0 0,-118 38,0 0,81 44,0 0,24 83,0 0,-24 44,0 0,-81"
           style="fill:none;stroke:#000000;stroke-width:24;stroke-linecap:round;stroke-linejoin:round;stroke-miterlimit:10;stroke-opacity:1;stroke-dasharray:none"
           id="path3097"
           inkscape:connector-curvature="0" /><path
           d="m 6578,9881 0,353 353,0 0,-353 -353,0"
           style="fill:none;stroke:#000000;stroke-width:24;stroke-linecap:round;stroke-linejoin:round;stroke-miterlimit:10;stroke-opacity:1;stroke-dasharray:none"
           id="path3099"
           inkscape:connector-curvature="0" /><path
           d="m 7538,9881 0,353 353,0 0,-353 -353,0"
           style="fill:none;stroke:#000000;stroke-width:24;stroke-linecap:round;stroke-linejoin:round;stroke-miterlimit:10;stroke-opacity:1;stroke-dasharray:none"
           id="path3101"
           inkscape:connector-curvature="0" /><path
           d="m 8611,10714 0,-353 -353,0 0,353 353,0"
           style="fill:none;stroke:#000000;stroke-width:24;stroke-linecap:round;stroke-linejoin:round;stroke-miterlimit:10;stroke-opacity:1;stroke-dasharray:none"
           id="path3103"
           inkscape:connector-curvature="0" /><path
           d="m 9464,9484 8,43 5,0 -9,-50 -8,0 -10,50 6,0 8,-43"
           style="fill:none;stroke:#000000;stroke-width:24;stroke-linecap:round;stroke-linejoin:round;stroke-miterlimit:10;stroke-opacity:1;stroke-dasharray:none"
           id="path3105"
           inkscape:connector-curvature="0" /><path
           d="m 6818,10361 0,353 353,0 0,-353 -353,0"
           style="fill:none;stroke:#000000;stroke-width:24;stroke-linecap:round;stroke-linejoin:round;stroke-miterlimit:10;stroke-opacity:1;stroke-dasharray:none"
           id="path3107"
           inkscape:connector-curvature="0" /><path
           d="m 9421,9477 -5,0"
           style="fill:none;stroke:#000000;stroke-width:24;stroke-linecap:round;stroke-linejoin:round;stroke-miterlimit:10;stroke-opacity:1;stroke-dasharray:none"
           id="path3109"
           inkscape:connector-curvature="0" /><g
           id="g3111"
           transform="matrix(0.9137,0.40638,-0.40638,0.9137,9660.5,9584.5)"><path
             d="m -261.11099,2.31732 c -0.32813,-0.97656 -0.44873,-1.95466 -0.36161,-2.93257"
             style="fill:none;stroke:#000000;stroke-width:24;stroke-linecap:round;stroke-linejoin:round;stroke-miterlimit:10;stroke-opacity:1;stroke-dasharray:none"
             id="path3113"
             inkscape:connector-curvature="0" /></g><path
           d="m 9420,9491 0,-8 0,-3"
           style="fill:none;stroke:#000000;stroke-width:24;stroke-linecap:round;stroke-linejoin:round;stroke-miterlimit:10;stroke-opacity:1;stroke-dasharray:none"
           id="path3115"
           inkscape:connector-curvature="0" /><g
           id="g3117"
           transform="matrix(-0.71426,-0.69988,0.69988,-0.71426,9073.5,9162.5)"><path
             d="m -478.44031,8.34945 c -1.88659,-1.93186 -3.11746,-3.87415 -3.68878,-5.8209"
             style="fill:none;stroke:#000000;stroke-width:24;stroke-linecap:round;stroke-linejoin:round;stroke-miterlimit:10;stroke-opacity:1;stroke-dasharray:none"
             id="path3119"
             inkscape:connector-curvature="0" /></g><g
           id="g3121"
           transform="matrix(-0.76164,-0.648,0.648,-0.76164,8641.5,8838.5)"><path
             d="m -1020.3395,1.48093 c -0.431,-1.98792 0.01,-3.97647 1.31,-5.96184"
             style="fill:none;stroke:#000000;stroke-width:24;stroke-linecap:round;stroke-linejoin:round;stroke-miterlimit:10;stroke-opacity:1;stroke-dasharray:none"
             id="path3123"
             inkscape:connector-curvature="0" /></g><path
           d="m 9419,9505 -1,-1 -1,-1 -2,-1 -1,-1"
           style="fill:none;stroke:#000000;stroke-width:24;stroke-linecap:round;stroke-linejoin:round;stroke-miterlimit:10;stroke-opacity:1;stroke-dasharray:none"
           id="path3125"
           inkscape:connector-curvature="0" /><g
           id="g3127"
           transform="matrix(0.67757,-0.73545,0.73545,0.67757,9187.5,9753.5)"><path
             d="m 339.1554,2.22975 c -0.57785,1.86843 -1.8815,3.73058 -3.90473,5.5775"
             style="fill:none;stroke:#000000;stroke-width:24;stroke-linecap:round;stroke-linejoin:round;stroke-miterlimit:10;stroke-opacity:1;stroke-dasharray:none"
             id="path3129"
             inkscape:connector-curvature="0" /></g><path
           d="m 9415,9480 0,1 0,1 0,1 0,8 0,2 -1,2 0,1 -1,1 -1,1 -2,0 -1,0 -2,1 -4,0 0,-22 -5,0 0,50 11,0 1,0 2,0 1,0 1,-1 1,0 1,-1 1,0 1,-1 1,-1 0,-2 1,-3 0,-2 0,-4"
           style="fill:none;stroke:#000000;stroke-width:24;stroke-linecap:round;stroke-linejoin:round;stroke-miterlimit:10;stroke-opacity:1;stroke-dasharray:none"
           id="path3131"
           inkscape:connector-curvature="0" /><g
           id="g3133"
           transform="matrix(-0.78497,-0.61953,0.61953,-0.78497,9530.5,9565.5)"><path
             d="m 143.42682,-3.95361 c 0.40564,0.7444 0.69659,1.49173 0.87233,2.24066"
             style="fill:none;stroke:#000000;stroke-width:24;stroke-linecap:round;stroke-linejoin:round;stroke-miterlimit:10;stroke-opacity:1;stroke-dasharray:none"
             id="path3135"
             inkscape:connector-curvature="0" /></g><path
           d="m 9512,9617 -61,-7 6,-51 -11,-1 -6,50 -60,-7 -1,10 60,8 -4,36 -51,-7 -1,11 50,6 -3,32 16,1 0,-1 -1,0 0,-1 -2,-1 -1,-1 3,-27 49,6 1,-11 -49,-6 4,-36 60,8 2,-11"
           style="fill:none;stroke:#000000;stroke-width:24;stroke-linecap:round;stroke-linejoin:round;stroke-miterlimit:10;stroke-opacity:1;stroke-dasharray:none"
           id="path3137"
           inkscape:connector-curvature="0" /><path
           d="m 9250,9677 0,10 86,0 2,2 10,-5 0,-1 -1,0 -1,-1 -2,-8 -3,-8 -4,-8 -3,-8 -4,-7 -4,-8 -4,-7 -4,-6 4,-3 5,-3 4,-3 4,-4 4,-3 3,-3 4,-2 3,-3 -8,-10 -3,3 -4,3 -3,3 -4,3 -4,3 -4,3 -4,3 -4,3 -4,-4 -3,-4 -4,-4 -3,-4 -4,-3 -4,-4 -4,-3 -4,-4 -4,-3 -4,-3 -4,-3 -5,-3 -4,-2 -4,-3 -5,-2 -4,-3 -2,2 -2,3 -3,2 -2,2 5,2 4,3 4,2 5,3 4,2 4,3 4,3 4,3 4,3 4,4 4,3 4,4 3,3 4,4 3,4 3,4 -10,7 -10,6 -11,6 -5,3 -5,3 7,8 5,-3 5,-2 11,-6 10,-6 5,-4 5,-3 4,6 3,5 3,6 3,6 3,6 3,6 2,7 2,7 -81,0"
           style="fill:none;stroke:#000000;stroke-width:24;stroke-linecap:round;stroke-linejoin:round;stroke-miterlimit:10;stroke-opacity:1;stroke-dasharray:none"
           id="path3139"
           inkscape:connector-curvature="0" /><path
           d="m 9503,9528 2,0 1,-1 1,0 1,0 1,-1 1,0 1,-1 1,-1"
           style="fill:none;stroke:#000000;stroke-width:24;stroke-linecap:round;stroke-linejoin:round;stroke-miterlimit:10;stroke-opacity:1;stroke-dasharray:none"
           id="path3141"
           inkscape:connector-curvature="0" /><g
           id="g3143"
           transform="matrix(0.67199,-0.74056,0.74056,0.67199,10619.5,8287.5)"><path
             d="m -1668.2153,7.23727 c -2.5744,-2.83323 -3.636,-5.67205 -3.1831,-8.51069"
             style="fill:none;stroke:#000000;stroke-width:24;stroke-linecap:round;stroke-linejoin:round;stroke-miterlimit:10;stroke-opacity:1;stroke-dasharray:none"
             id="path3145"
             inkscape:connector-curvature="0" /></g><path
           d="m 9497,9515 0,-2 -5,0 0,2 0,3 1,2 1,2 1,2"
           style="fill:none;stroke:#000000;stroke-width:24;stroke-linecap:round;stroke-linejoin:round;stroke-miterlimit:10;stroke-opacity:1;stroke-dasharray:none"
           id="path3147"
           inkscape:connector-curvature="0" /><g
           id="g3149"
           transform="matrix(0.68383,-0.72965,0.72965,0.68383,10095.5,8886.5)"><path
             d="m -871.41461,-0.94481 c 0.2807,-1.55315 1.25354,-3.1051 2.91669,-4.65306"
             style="fill:none;stroke:#000000;stroke-width:24;stroke-linecap:round;stroke-linejoin:round;stroke-miterlimit:10;stroke-opacity:1;stroke-dasharray:none"
             id="path3151"
             inkscape:connector-curvature="0" /></g><path
           d="m 9503,9501 -3,0 0,5 3,0 1,0 1,0 1,1 1,1 1,1 0,1 1,1 0,2 0,2 0,1 0,1 -1,2 0,1 -1,1 -1,1 -1,0 -1,1 -1,0 -1,-1 -1,0 -1,0 -1,-1"
           style="fill:none;stroke:#000000;stroke-width:24;stroke-linecap:round;stroke-linejoin:round;stroke-miterlimit:10;stroke-opacity:1;stroke-dasharray:none"
           id="path3153"
           inkscape:connector-curvature="0" /><g
           id="g3155"
           transform="matrix(-0.66757,-0.74455,0.74455,-0.66757,4859.5,4316.5)"><path
             d="m -6959.4448,5.46501 c -3.5659,-3.18864 -4.0103,-6.3792 -1.333,-9.56845"
             style="fill:none;stroke:#000000;stroke-width:24;stroke-linecap:round;stroke-linejoin:round;stroke-miterlimit:10;stroke-opacity:1;stroke-dasharray:none"
             id="path3157"
             inkscape:connector-curvature="0" /></g><path
           d="m 9499,9484 0,-1 1,-1 2,0 1,0 1,0 2,0 1,1 0,1 1,1 1,1 0,2 0,2 0,3"
           style="fill:none;stroke:#000000;stroke-width:24;stroke-linecap:round;stroke-linejoin:round;stroke-miterlimit:10;stroke-opacity:1;stroke-dasharray:none"
           id="path3159"
           inkscape:connector-curvature="0" /><g
           id="g3161"
           transform="matrix(-0.67772,-0.73532,0.73532,-0.67772,10107.5,10142.5)"><path
             d="m 893.48267,-5.61535 c 1.67474,1.55574 2.65301,3.1154 2.9331,4.67625"
             style="fill:none;stroke:#000000;stroke-width:24;stroke-linecap:round;stroke-linejoin:round;stroke-miterlimit:10;stroke-opacity:1;stroke-dasharray:none"
             id="path3163"
             inkscape:connector-curvature="0" /></g><path
           d="m 9514,9493 0,-4 0,-2 0,-3 -1,-2 -1,-2 -1,-1 -1,0 -1,-1 -1,0 -1,-1 -1,0 -1,0 -2,0 -1,0 -1,0 -2,0 -1,1 -1,0 -1,1 -1,0 0,1 -1,2 -1,2 -1,3 0,2 0,4 5,0 0,-4"
           style="fill:none;stroke:#000000;stroke-width:24;stroke-linecap:round;stroke-linejoin:round;stroke-miterlimit:10;stroke-opacity:1;stroke-dasharray:none"
           id="path3165"
           inkscape:connector-curvature="0" /><g
           id="g3167"
           transform="matrix(-0.75965,-0.65034,0.65034,-0.75965,9432.5,9433.5)"><path
             d="m -101.17304,7.88509 c -1.62715,-1.89703 -2.66355,-3.83567 -3.09573,-5.79074"
             style="fill:none;stroke:#000000;stroke-width:24;stroke-linecap:round;stroke-linejoin:round;stroke-miterlimit:10;stroke-opacity:1;stroke-dasharray:none"
             id="path3169"
             inkscape:connector-curvature="0" /></g><path
           d="m 9508,9504 2,-1 1,-1 1,-1 1,-1"
           style="fill:none;stroke:#000000;stroke-width:24;stroke-linecap:round;stroke-linejoin:round;stroke-miterlimit:10;stroke-opacity:1;stroke-dasharray:none"
           id="path3171"
           inkscape:connector-curvature="0" /><g
           id="g3173"
           transform="matrix(0.69535,-0.71867,0.71867,0.69535,9157.5,9872.5)"><path
             d="m 508.73672,-3.52922 c 0.84208,1.94533 0.98749,3.89449 0.43577,5.84149"
             style="fill:none;stroke:#000000;stroke-width:24;stroke-linecap:round;stroke-linejoin:round;stroke-miterlimit:10;stroke-opacity:1;stroke-dasharray:none"
             id="path3175"
             inkscape:connector-curvature="0" /></g><g
           id="g3177"
           transform="matrix(-0.76996,0.63809,-0.63809,-0.76996,9393.5,9605.5)"><path
             d="m -154.36873,-1.54553 c 0.33696,-1.98274 1.32181,-3.95587 2.94528,-5.90078"
             style="fill:none;stroke:#000000;stroke-width:24;stroke-linecap:round;stroke-linejoin:round;stroke-miterlimit:10;stroke-opacity:1;stroke-dasharray:none"
             id="path3179"
             inkscape:connector-curvature="0" /></g><path
           d="m 9514,9515 0,-1"
           style="fill:none;stroke:#000000;stroke-width:24;stroke-linecap:round;stroke-linejoin:round;stroke-miterlimit:10;stroke-opacity:1;stroke-dasharray:none"
           id="path3181"
           inkscape:connector-curvature="0" /><g
           id="g3183"
           transform="matrix(-0.75545,-0.6552,0.6552,-0.75545,8459.5,8612.5)"><path
             d="m -1388.5783,9.03734 c -2.5067,-2.88421 -3.8126,-5.7753 -3.9151,-8.66765"
             style="fill:none;stroke:#000000;stroke-width:24;stroke-linecap:round;stroke-linejoin:round;stroke-miterlimit:10;stroke-opacity:1;stroke-dasharray:none"
             id="path3185"
             inkscape:connector-curvature="0" /></g><path
           d="m 8131,10714 0,-353 -353,0 0,353 353,0"
           style="fill:none;stroke:#000000;stroke-width:24;stroke-linecap:round;stroke-linejoin:round;stroke-miterlimit:10;stroke-opacity:1;stroke-dasharray:none"
           id="path3187"
           inkscape:connector-curvature="0" /><path
           d="m 5731,10714 0,-353 -353,0 0,353 353,0"
           style="fill:none;stroke:#000000;stroke-width:24;stroke-linecap:round;stroke-linejoin:round;stroke-miterlimit:10;stroke-opacity:1;stroke-dasharray:none"
           id="path3189"
           inkscape:connector-curvature="0" /><path
           d="m 4898,10361 0,353 353,0 0,-353 -353,0"
           style="fill:none;stroke:#000000;stroke-width:24;stroke-linecap:round;stroke-linejoin:round;stroke-miterlimit:10;stroke-opacity:1;stroke-dasharray:none"
           id="path3191"
           inkscape:connector-curvature="0" /><path
           d="m 6338,10714 353,0 0,-353 -353,0 0,353"
           style="fill:none;stroke:#000000;stroke-width:24;stroke-linecap:round;stroke-linejoin:round;stroke-miterlimit:10;stroke-opacity:1;stroke-dasharray:none"
           id="path3193"
           inkscape:connector-curvature="0" /><path
           d="m 9202,9675 8,-4 0,-1 -1,-1 -1,0 -2,-7 -2,-8 -3,-7 -3,-6 -3,-7 -3,-6 -4,-6 -3,-6 5,-3 6,-4 5,-3 2,-2 3,-1 -7,-11 -2,2 -3,2 -5,3 -6,4 -2,1 -3,2 -3,-4 -2,-4 -4,-3 -3,-4 -3,-3 -3,-3 -4,-4 -3,-3 -4,-3 -4,-3 -3,-2 -4,-3 -5,-3 -4,-2 -4,-2 -5,-3 0,1 -1,2 -3,2 -2,2 -1,1 -1,1 4,2 4,2 4,2 4,3 4,2 4,3 4,3 3,3 4,3 3,3 3,3 4,3 3,3 3,4 3,3 2,4 -9,4 -8,5 -9,4 -9,3 6,9 4,-1 5,-2 4,-2 5,-2 9,-4 9,-5 3,5 3,5 3,5 2,6 2,5 3,5 2,6 1,6 -54,0 -4,-6 -4,-7 -4,-5 -5,-6 -5,-6 -5,-5 -5,-5 -5,-4 -1,0 -1,1 -2,2 -3,2 -1,1 -1,1 4,3 4,3 4,4 3,4 4,4 4,4 3,5 3,5 4,4 3,5 3,5 2,5 3,6 2,5 3,5 1,5 16,-4 -1,0 0,-1 -1,0 -1,-1 -2,0 -1,-2 -1,-2 -2,-5 -2,-5 -1,-2 -2,-3 54,0 2,1"
           style="fill:none;stroke:#000000;stroke-width:24;stroke-linecap:round;stroke-linejoin:round;stroke-miterlimit:10;stroke-opacity:1;stroke-dasharray:none"
           id="path3195"
           inkscape:connector-curvature="0" /><path
           d="m 3689,11297 -3,-5 -2,-6 -2,-5 -2,-6 -1,-6 -1,-6 0,-6 0,-1920 0,-6 1,-6 1,-6 2,-5 2,-6 2,-5 3,-6 4,-5 3,-4 4,-5 5,-4 4,-3 5,-4 5,-2 6,-3 5,-2 6,-2 6,-1 6,0 6,-1 5881,0 6,1 6,0 6,1 6,2 5,2 6,3 5,2 5,4 4,3 5,4 4,5 3,4 4,5 3,6 2,5 2,6 2,5 1,6 1,6 0,6 0,1920 0,6 -1,6 -1,6 -2,6 -2,5 -2,6 -3,5 -4,5 -3,4 -4,5 -5,4 -4,4 -5,3 -5,3 -6,2 -5,2 -6,2 -6,1 -6,1 -6,0 -5881,0 -6,0 -6,-1 -6,-1 -6,-2 -5,-2 -6,-2 -5,-3 -5,-3 -4,-4 -5,-4 -4,-5 -3,-4 -4,-5"
           style="fill:none;stroke:#000000;stroke-width:24;stroke-linecap:round;stroke-linejoin:round;stroke-miterlimit:10;stroke-opacity:1;stroke-dasharray:none"
           id="path3197"
           inkscape:connector-curvature="0" /></g></g><rect
       style="fill:#000000;fill-opacity:0;stroke:#000000;stroke-width:39.58968735;stroke-opacity:1"
       id="rect3375"
       width="621.82764"
       height="621.82764"
       x="7392.7593"
       y="-11936.611"
       transform="scale(1,-1)" /><rect
       transform="scale(1,-1)"
       y="-12210.241"
       x="10995.549"
       height="621.82764"
       width="621.82764"
       id="rect3377"
       style="fill:#000000;fill-opacity:0;stroke:#000000;stroke-width:39.58968735;stroke-opacity:1" /></g></svg>