<?xml version="1.0" encoding="UTF-8" standalone="no"?>
<!-- Created with Inkscape (http://www.inkscape.org/) -->

<svg
   id="svg2"
   version="1.1"
   inkscape:version="1.1.2 (b8e25be833, 2022-02-05)"
   width="1530"
   height="990"
   xml:space="preserve"
   sodipodi:docname="lasercut BOTTOM.svg"
   xmlns:inkscape="http://www.inkscape.org/namespaces/inkscape"
   xmlns:sodipodi="http://sodipodi.sourceforge.net/DTD/sodipodi-0.dtd"
   xmlns="http://www.w3.org/2000/svg"
   xmlns:svg="http://www.w3.org/2000/svg"
   xmlns:rdf="http://www.w3.org/1999/02/22-rdf-syntax-ns#"
   xmlns:cc="http://creativecommons.org/ns#"
   xmlns:dc="http://purl.org/dc/elements/1.1/"><metadata
     id="metadata8"><rdf:RDF><cc:Work
         rdf:about=""><dc:format>image/svg+xml</dc:format><dc:type
           rdf:resource="http://purl.org/dc/dcmitype/StillImage" /><dc:title /></cc:Work></rdf:RDF></metadata><defs
     id="defs6"><clipPath
       clipPathUnits="userSpaceOnUse"
       id="clipPath16"><path
         d="m 3526,2646 10590,0 0,8839 -10590,0 0,-8839"
         id="path18" /></clipPath><clipPath
       clipPathUnits="userSpaceOnUse"
       id="clipPath244"><path
         d="m 0,0 20399,0 0,13199 L 0,13199 0,0"
         id="path246" /></clipPath><clipPath
       clipPathUnits="userSpaceOnUse"
       id="clipPath304"><path
         d="m 0,0 20399,0 0,13199 L 0,13199 0,0"
         id="path306" /></clipPath><clipPath
       clipPathUnits="userSpaceOnUse"
       id="clipPath316"><path
         d="m 0,0 20399,0 0,13199 L 0,13199 0,0"
         id="path318" /></clipPath><clipPath
       clipPathUnits="userSpaceOnUse"
       id="clipPath2345"><path
         d="M -570.938,783.316 V -406.153 H 421.371 V 783.316 h -992.309"
         id="path2343" /></clipPath><clipPath
       clipPathUnits="userSpaceOnUse"
       id="clipPath2353"><path
         d="M 0,0 H 596 V 842 H 0 Z"
         id="path2351" /></clipPath></defs><sodipodi:namedview
     pagecolor="#ffffff"
     bordercolor="#666666"
     borderopacity="1"
     objecttolerance="10"
     gridtolerance="10"
     guidetolerance="10"
     inkscape:pageopacity="0"
     inkscape:pageshadow="2"
     inkscape:window-width="1920"
     inkscape:window-height="1001"
     id="namedview4"
     showgrid="false"
     inkscape:zoom="0.86797386"
     inkscape:cx="1025.9526"
     inkscape:cy="336.99172"
     inkscape:window-x="-9"
     inkscape:window-y="-9"
     inkscape:window-maximized="1"
     inkscape:current-layer="layer1"
     showguides="true"
     inkscape:guide-bbox="true"
     inkscape:pagecheckerboard="0" /><g
     id="g10"
     inkscape:groupmode="layer"
     inkscape:label="lasercut case"
     transform="matrix(0.075,0,0,-0.075,0,990)"><g
       clip-path="url(#clipPath16)"
       id="g14"
       transform="translate(0,30.722892)"><path
         inkscape:connector-curvature="0"
         id="path218"
         style="fill:#000000;fill-opacity:1;fill-rule:nonzero;stroke:#000000;stroke-width:20.83333397;stroke-linecap:round;stroke-linejoin:round;stroke-miterlimit:10;stroke-opacity:1;stroke-dasharray:none"
         d="m 12042,10981 -1,5 -3,4 -5,2 -4,0 -5,-2 -3,-4 -1,-5 1,-5 3,-4 5,-2 4,0 5,2 3,4 1,5 z" /></g><g
       inkscape:groupmode="layer"
       id="layer1"
       inkscape:label="Layer"><g
         id="g3478"
         transform="matrix(2.0304309,0,0,1.9964131,-4058.8234,452.47635)"><path
           d="m 3850,4247 -72,-42 -72,42 v 83 l 72,41 72,-41 v -83"
           style="fill:none;stroke:#000000;stroke-width:24;stroke-linecap:round;stroke-linejoin:round;stroke-miterlimit:10;stroke-dasharray:none;stroke-opacity:1"
           id="path20"
           inkscape:connector-curvature="0" /><path
           d="m 3888,2893 -72,-42 -72,42 v 83 l 72,41 72,-41 v -83"
           style="fill:none;stroke:#000000;stroke-width:24;stroke-linecap:round;stroke-linejoin:round;stroke-miterlimit:10;stroke-dasharray:none;stroke-opacity:1"
           id="path22"
           inkscape:connector-curvature="0" /><path
           d="m 6833,2970 h 83 l 42,-72 -42,-72 h -83 l -42,72 42,72"
           style="fill:none;stroke:#000000;stroke-width:24;stroke-linecap:round;stroke-linejoin:round;stroke-miterlimit:10;stroke-dasharray:none;stroke-opacity:1"
           id="path24"
           inkscape:connector-curvature="0" /><path
           d="m 9538,4327 v 83 l 72,42 72,-42 v -83 l -72,-41 -72,41"
           style="fill:none;stroke:#000000;stroke-width:24;stroke-linecap:round;stroke-linejoin:round;stroke-miterlimit:10;stroke-dasharray:none;stroke-opacity:1"
           id="path26"
           inkscape:connector-curvature="0" /><path
           d="m 9614,2862 h -84 l -41,72 41,72 h 84 l 41,-72 -41,-72"
           style="fill:none;stroke:#000000;stroke-width:24;stroke-linecap:round;stroke-linejoin:round;stroke-miterlimit:10;stroke-dasharray:none;stroke-opacity:1"
           id="path28"
           inkscape:connector-curvature="0" /><path
           d="m 8596,4713 h -84 l -41,72 41,72 h 84 l 41,-72 -41,-72"
           style="fill:none;stroke:#000000;stroke-width:24;stroke-linecap:round;stroke-linejoin:round;stroke-miterlimit:10;stroke-dasharray:none;stroke-opacity:1"
           id="path30"
           inkscape:connector-curvature="0" /><path
           d="m 9647,4869 h -6 l -6,1 H 3754 l -6,-1 h -6 l -6,-1 -6,-2 -5,-2 -6,-3 -5,-3 -5,-3 -4,-3 -5,-5 -4,-4 -3,-5 -4,-4 -3,-6 -2,-5 -2,-6 -2,-5 -1,-6 -1,-6 v -6 -1920 -6 l 1,-6 1,-6 2,-6 2,-5 2,-6 3,-5 4,-5 3,-4 4,-5 5,-4 4,-4 5,-3 5,-3 6,-2 5,-2 6,-2 6,-1 6,-1 h 6 5881 6 l 6,1 6,1 5,2 6,2 5,2 6,3 5,3 4,4 5,4 4,5 3,4 4,5 2,5 3,6 2,5 2,6 1,6 v 6 l 1,6 v 1920 l -1,6 v 6 l -1,6 -2,5 -2,6 -3,5 -2,6 -4,4 -3,5 -4,4 -5,5 -4,3 -5,3 -6,3 -5,3 -6,2 -5,2 -6,1"
           style="fill:none;stroke:#000000;stroke-width:24;stroke-linecap:round;stroke-linejoin:round;stroke-miterlimit:10;stroke-dasharray:none;stroke-opacity:1"
           id="path32"
           inkscape:connector-curvature="0" /></g></g></g></svg>
